<svg enable-background="new 0 0 256 256" height="512" viewBox="0 0 256 256" width="512" xmlns="http://www.w3.org/2000/svg"><path d="m242.042 93.824-24.248-36.715c-1.196-1.811-3.222-2.901-5.392-2.901h-84.403v.121h-84.402c-2.17 0-4.196 1.089-5.392 2.901l-24.247 36.714c-1.574 2.384-1.396 5.519.438 7.71l108.647 129.742c2.583 3.085 7.328 3.084 9.91-.002l108.653-129.861c1.833-2.191 2.01-5.325.436-7.709z" fill="#087ebf"/><path d="m125.348 233.143c1.681.753 3.621.753 5.301-.001l85.912-135.301-21.869-43.632h-66.693v.121h-66.693l-21.869 43.632z" fill="#3caadc"/><path d="m127.024 233.627c.647.098 1.303.097 1.95-.001l35.885-135.786-9.102-43.632h-27.758v.121h-27.758l-9.101 43.633z" fill="#70d6f9"/><path d="m253.745 119.883c-1.849-.334-3.355 1.047-3.355 2.749 0 1.549 1.249 2.805 2.805 2.805 1.526 0 2.805-1.258 2.805-2.805 0-1.351-.978-2.507-2.255-2.749z" fill="#f5c84c"/><path d="m31.355 152.883c-1.866-.337-3.355 1.068-3.355 2.749 0 1.28.901 2.493 2.255 2.749 1.853.345 3.354-1.077 3.354-2.749 0-1.351-.978-2.507-2.254-2.749z" fill="#ef4460"/><path d="m115.355 15.883c-1.851-.334-3.355 1.05-3.355 2.749 0 1.482 1.186 2.805 2.805 2.805 1.508 0 2.805-1.249 2.805-2.805-.001-1.349-.977-2.507-2.255-2.749z" fill="#ef4460"/><path d="m242.164 149.723c-3.995-.744-7.144-3.829-7.904-7.743-.038-.197-.313-.197-.351 0-.76 3.914-3.908 6.999-7.904 7.743-.201.037-.201.306 0 .344 3.995.744 7.144 3.829 7.904 7.743.038.197.313.197.351 0 .76-3.914 3.908-6.999 7.904-7.743.201-.037.201-.306 0-.344z" fill="#87d147"/><path d="m99.88 33.851c-3.191-.594-5.705-3.058-6.312-6.184-.03-.157-.25-.157-.28 0-.607 3.126-3.121 5.589-6.312 6.184-.16.03-.16.244 0 .274 3.191.594 5.705 3.058 6.312 6.184.03.157.25.157.28 0 .607-3.126 3.121-5.589 6.312-6.184.16-.029.16-.244 0-.274z" fill="#f5c84c"/><path d="m12.553 125.707h-2.07v-2.07c0-1.549-1.256-2.805-2.805-2.805s-2.805 1.256-2.805 2.805v2.07h-2.068c-1.549 0-2.805 1.256-2.805 2.805s1.256 2.805 2.805 2.805h2.069v2.07c0 1.549 1.256 2.805 2.805 2.805s2.805-1.256 2.805-2.805v-2.07h2.07c1.549 0 2.805-1.256 2.805-2.805-.002-1.549-1.257-2.805-2.806-2.805z" fill="#3caadc"/><path d="m127.998 236.209c-2.66 0-5.165-1.169-6.872-3.209l-108.647-129.74c-2.524-3.016-2.774-7.412-.607-10.693l24.247-36.714c1.664-2.52 4.459-4.023 7.478-4.023h83.635c.242-.078.5-.12.768-.12h84.403c3.018 0 5.814 1.504 7.478 4.022l24.248 36.715v.001c2.165 3.279 1.917 7.675-.605 10.689l-108.653 129.861c-1.708 2.04-4.213 3.211-6.873 3.211zm-84.401-179.38c-1.334 0-2.57.665-3.306 1.779l-24.247 36.714c-.958 1.45-.847 3.395.269 4.728l108.646 129.74c.755.902 1.862 1.419 3.038 1.419s2.283-.518 3.038-1.42l108.653-129.861c1.115-1.332 1.225-3.275.267-4.727l-24.247-36.714c-.736-1.113-1.972-1.778-3.306-1.778h-83.635c-.242.078-.5.12-.768.12z"/><path d="m127.998 236.209c-2.66 0-5.165-1.169-6.872-3.209l-108.647-129.74c-1.215-1.452-1.928-3.223-2.062-5.121-.049-.692.191-1.373.665-1.881.473-.508 1.135-.796 1.829-.796h230.161c.702 0 1.371.295 1.845.812.474.519.708 1.212.645 1.91-.165 1.844-.871 3.556-2.04 4.952l-108.651 129.862c-1.708 2.04-4.213 3.211-6.873 3.211zm-111.34-135.747 108.301 129.328c.755.902 1.862 1.419 3.038 1.419s2.283-.518 3.038-1.42l108.206-129.327z"/><path d="m205.86 35.37c-1.381 0-2.5-1.119-2.5-2.5v-10.579c0-1.381 1.119-2.5 2.5-2.5s2.5 1.119 2.5 2.5v10.579c0 1.381-1.119 2.5-2.5 2.5z"/><path d="m250.82 69.751h-10.579c-1.381 0-2.5-1.119-2.5-2.5s1.119-2.5 2.5-2.5h10.579c1.381 0 2.5 1.119 2.5 2.5s-1.119 2.5-2.5 2.5z"/><path d="m230.171 45.439c-.64 0-1.279-.244-1.768-.732-.977-.976-.977-2.559 0-3.535l7.48-7.48c.977-.977 2.559-.977 3.536 0 .977.976.977 2.559 0 3.535l-7.48 7.48c-.488.488-1.128.732-1.768.732z"/><path d="m50.14 35.37c-1.381 0-2.5-1.119-2.5-2.5v-10.579c0-1.381 1.119-2.5 2.5-2.5s2.5 1.119 2.5 2.5v10.579c0 1.381-1.119 2.5-2.5 2.5z"/><path d="m15.759 69.751h-10.579c-1.381 0-2.5-1.119-2.5-2.5s1.119-2.5 2.5-2.5h10.579c1.381 0 2.5 1.119 2.5 2.5s-1.119 2.5-2.5 2.5z"/><path d="m25.829 45.439c-.64 0-1.28-.244-1.768-.732l-7.48-7.48c-.976-.977-.976-2.56 0-3.535.976-.977 2.559-.977 3.536 0l7.48 7.48c.976.977.976 2.56 0 3.535-.489.488-1.129.732-1.768.732z"/><path d="m127.998 236.208c-1.253 0-2.505-.261-3.672-.784-.447-.2-.825-.527-1.088-.94l-85.911-135.181c-.471-.741-.519-1.676-.125-2.461l21.869-43.633c.424-.846 1.289-1.38 2.235-1.38h65.926c.242-.078.5-.12.768-.12h66.693c.946 0 1.811.534 2.235 1.38l21.869 43.632c.394.785.346 1.719-.125 2.46l-85.912 135.3c-.262.414-.641.741-1.087.941-1.168.524-2.422.786-3.675.786zm-.997-5.126c.653.168 1.341.168 1.995 0l84.696-133.387-20.543-40.986h-64.382c-.242.078-.5.12-.768.12h-65.149l-20.543 40.987z"/><path d="m127.997 236.2c-.449 0-.899-.034-1.346-.102-.986-.148-1.789-.869-2.044-1.832l-35.884-135.664c-.099-.376-.11-.77-.03-1.15l9.102-43.633c.242-1.159 1.263-1.989 2.447-1.989h26.99c.242-.078.5-.12.768-.12h27.757c1.184 0 2.206.83 2.447 1.989l9.102 43.632c.08.381.069.774-.03 1.149l-35.885 135.785c-.254.963-1.056 1.683-2.04 1.833-.449.068-.901.102-1.354.102zm-34.289-138.306 34.29 129.641 34.293-129.761-8.566-41.064h-24.958c-.242.078-.5.12-.768.12h-25.726z"/></svg>