<?xml version="1.0" encoding="utf-8"?>
<!-- Generator: Adobe Illustrator 22.0.1, SVG Export Plug-In . SVG Version: 6.00 Build 0)  -->
<svg version="1.1" id="Capa_1" xmlns="http://www.w3.org/2000/svg" xmlns:xlink="http://www.w3.org/1999/xlink" x="0px" y="0px"
	 viewBox="0 0 20.3 20.3" style="enable-background:new 0 0 20.3 20.3;" xml:space="preserve">
<style type="text/css">
	.st0{fill:#FED766;}
</style>
<g>
	<g>
		<g>
			<path class="st0" d="M17.7,15.4c0.1-0.2,0.1-0.5-0.1-0.6l-2-1.3c-0.2-0.1-0.5-0.1-0.6,0.1c-1.7,2.6-5.3,3.4-8,1.7
				C4.2,13.5,3.4,10,5.1,7.3c1.7-2.6,5.3-3.4,8-1.7c0.3,0.2,0.6,0.4,0.8,0.6L13,7.6c-0.1,0.2-0.1,0.4,0,0.5c0.1,0.2,0.3,0.2,0.5,0.2
				l5.8-0.1c0.3-0.1,0.4-0.3,0.4-0.5l-2.3-5.3c0-0.2-0.2-0.3-0.4-0.4c-0.2,0-0.4,0-0.5,0.2l-0.8,1.2c-0.3-0.2-0.5-0.4-0.8-0.6
				C10.6,0.2,4.9,1.3,2.3,5.5C-0.4,9.7,0.9,15.3,5.1,18C9.4,20.8,15,19.6,17.7,15.4z"/>
		</g>
	</g>
</g>
</svg>
