<?xml version="1.0" encoding="iso-8859-1"?>
<!-- Generator: Adobe Illustrator 16.0.0, SVG Export Plug-In . SVG Version: 6.00 Build 0)  -->
<!DOCTYPE svg PUBLIC "-//W3C//DTD SVG 1.1//EN" "http://www.w3.org/Graphics/SVG/1.1/DTD/svg11.dtd">
<svg version="1.1" id="Capa_1" xmlns="http://www.w3.org/2000/svg" xmlns:xlink="http://www.w3.org/1999/xlink" x="0px" y="0px"
	 width="832.566px" height="832.566px" viewBox="0 0 832.566 832.566" style="enable-background:new 0 0 832.566 832.566;"
	 xml:space="preserve">
<g>
	<path d="M22.986,443.749l402.315,24.521c1.871,0.1,4.051,0.117,5.967,0c26.715-1.629,47.127-24.354,46.016-50.979
		c-1.148-27.473-25.502-48.535-52.949-46.861l-401.348,24.46C-7.662,396.758-7.662,441.882,22.986,443.749z"/>
	<circle cx="346.823" cy="54.041" r="49.53"/>
	<path d="M444.375,87.915c80.959,4.909,156.391,38.783,214.236,96.628c62.711,62.711,97.248,146.09,97.248,234.779
		c0,88.016-35.016,172.549-97.252,234.785c-62.711,62.709-146.09,97.244-234.775,97.244c-73.842,0-143.732-23.717-202.115-68.582
		c-51.102-39.271-90.099-93.271-111.326-153.65c-3.84-10.924-15.476-17.008-26.622-13.871l-31.717,8.928
		c-12.155,3.422-18.874,16.367-14.764,28.309c11.789,34.246,28.096,66.74,48.63,96.854c24.538,35.984,54.502,67.697,89.059,94.252
		c34.94,26.852,73.691,47.742,115.174,62.094c42.911,14.846,87.888,22.373,133.681,22.373c55.162,0,108.693-10.812,159.109-32.137
		c48.676-20.59,92.385-50.055,129.91-87.58c37.523-37.523,66.99-81.232,87.578-129.908c21.324-50.414,32.137-103.947,32.137-159.109
		c0-55.163-10.812-108.694-32.137-159.11c-13.291-31.424-30.305-60.763-50.775-87.719l45.549-45.549
		c8.559-8.559,8.559-22.435,0-30.994l-46.492-46.491c-8.559-8.559-22.434-8.559-30.994,0l-45.348,45.349
		c-27.424-21.055-57.338-38.511-89.428-52.084c-43.379-18.348-89.068-28.914-136.115-31.505
		c-12.508-0.689-22.996,9.365-22.996,21.893v32.938C423.83,77.62,432.824,87.215,444.375,87.915z"/>
</g>
<g>
</g>
<g>
</g>
<g>
</g>
<g>
</g>
<g>
</g>
<g>
</g>
<g>
</g>
<g>
</g>
<g>
</g>
<g>
</g>
<g>
</g>
<g>
</g>
<g>
</g>
<g>
</g>
<g>
</g>
</svg>
